<svg xmlns="http://www.w3.org/2000/svg" viewBox="0 0 840 56" width="840" height="56" role="img" aria-label="Computer Graphics: WebGL2 Rendering Engine: pranshuk22/CS360"><rect x="1" y="1" width="838" height="48" rx="12" fill="#1e1e2e" stroke="#585b70" stroke-width="2"/><path d="M23.216 30.104V28.264L27.856 26.12Q28.176000000000002 25.976 28.488 25.872Q28.8 25.768 28.976 25.736Q28.8 25.704 28.48 25.616Q28.16 25.528 27.856 25.384L23.216 23.224V21.352L30.384 24.728V26.728Z" fill="#a6e3a1"/><path d="M50.56 30.549999999999997Q49.51 30.549999999999997 48.7225 30.152499999999996Q47.935 29.755 47.5075 29.027499999999996Q47.08 28.299999999999997 47.08 27.31V22.54Q47.08 21.534999999999997 47.5075 20.814999999999998Q47.935 20.095 48.7225 19.697499999999998Q49.51 19.299999999999997 50.56 19.299999999999997Q51.625 19.299999999999997 52.3975 19.697499999999998Q53.17 20.095 53.605000000000004 20.814999999999998Q54.04 21.534999999999997 54.04 22.54H52.15Q52.15 21.759999999999998 51.7375 21.354999999999997Q51.325 20.95 50.56 20.95Q49.795 20.95 49.375 21.354999999999997Q48.955 21.759999999999998 48.955 22.525V27.31Q48.955 28.075 49.375 28.487499999999997Q49.795 28.9 50.56 28.9Q51.325 28.9 51.7375 28.487499999999997Q52.15 28.075 52.15 27.31H54.04Q54.04 28.285 53.605000000000004 29.02Q53.17 29.755 52.3975 30.152499999999996Q51.625 30.549999999999997 50.56 30.549999999999997ZM59.5 30.535Q58.45 30.535 57.6775 30.1375Q56.905 29.74 56.4775 29.0125Q56.05 28.285 56.05 27.294999999999998V25.255Q56.05 24.265 56.4775 23.5375Q56.905 22.81 57.6775 22.4125Q58.45 22.015 59.5 22.015Q60.565 22.015 61.33 22.4125Q62.095 22.81 62.5225 23.5375Q62.95 24.265 62.95 25.24V27.294999999999998Q62.95 28.285 62.5225 29.0125Q62.095 29.74 61.33 30.1375Q60.565 30.535 59.5 30.535ZM59.5 28.9Q60.25 28.9 60.6625 28.487499999999997Q61.075 28.075 61.075 27.294999999999998V25.255Q61.075 24.46 60.6625 24.055Q60.25 23.65 59.5 23.65Q58.765 23.65 58.345 24.055Q57.925 24.46 57.925 25.255V27.294999999999998Q57.925 28.075 58.345 28.487499999999997Q58.765 28.9 59.5 28.9ZM64.78 30.4V22.15H66.31V23.259999999999998H66.625L66.37 23.529999999999998Q66.37 22.84 66.76 22.42Q67.15 22.0 67.765 22.0Q68.425 22.0 68.79249999999999 22.54Q69.16 23.08 69.16 23.994999999999997L68.83 23.259999999999998H69.34L69.145 23.529999999999998Q69.145 22.84 69.535 22.42Q69.925 22.0 70.57 22.0Q71.335 22.0 71.785 22.57Q72.235 23.14 72.235 24.115V30.4H70.585V24.189999999999998Q70.585 23.785 70.405 23.552500000000002Q70.225 23.32 69.88 23.32Q69.55 23.32 69.3625 23.545Q69.175 23.77 69.175 24.189999999999998V30.4H67.825V24.189999999999998Q67.825 23.77 67.64500000000001 23.545Q67.465 23.32 67.12 23.32Q66.775 23.32 66.6025 23.545Q66.43 23.77 66.43 24.189999999999998V30.4ZM74.155 33.1V22.15H75.985V23.724999999999998H76.405L75.985 24.159999999999997Q75.985 23.154999999999998 76.58500000000001 22.5775Q77.185 22.0 78.205 22.0Q79.45 22.0 80.2 22.855Q80.95 23.71 80.95 25.15V27.384999999999998Q80.95 28.345 80.61250000000001 29.057499999999997Q80.275 29.77 79.66 30.159999999999997Q79.045 30.549999999999997 78.205 30.549999999999997Q77.185 30.549999999999997 76.58500000000001 29.972499999999997Q75.985 29.395 75.985 28.39L76.405 28.825H75.97L76.03 30.79V33.1ZM77.545 28.93Q78.265 28.93 78.67 28.509999999999998Q79.075 28.09 79.075 27.31V25.24Q79.075 24.46 78.67 24.04Q78.265 23.619999999999997 77.545 23.619999999999997Q76.84 23.619999999999997 76.435 24.0475Q76.03 24.474999999999998 76.03 25.24V27.31Q76.03 28.075 76.435 28.502499999999998Q76.84 28.93 77.545 28.93ZM86.5 30.549999999999997Q84.925 30.549999999999997 84.025 29.6725Q83.125 28.794999999999998 83.125 27.279999999999998V22.15H85.0V27.265Q85.0 28.06 85.39 28.487499999999997Q85.78 28.915 86.5 28.915Q87.205 28.915 87.60249999999999 28.487499999999997Q88.0 28.06 88.0 27.265V22.15H89.875V27.279999999999998Q89.875 28.794999999999998 88.96000000000001 29.6725Q88.045 30.549999999999997 86.5 30.549999999999997ZM96.4 30.4Q95.215 30.4 94.5475 29.74Q93.88 29.08 93.88 27.924999999999997V23.845H91.645V22.15H93.88V19.825H95.77V22.15H98.935V23.845H95.77V27.924999999999997Q95.77 28.705 96.535 28.705H98.785V30.4ZM104.515 30.549999999999997Q103.465 30.549999999999997 102.685 30.144999999999996Q101.905 29.74 101.47749999999999 29.0125Q101.05 28.285 101.05 27.31V25.24Q101.05 24.265 101.47749999999999 23.5375Q101.905 22.81 102.685 22.405Q103.465 22.0 104.515 22.0Q105.55 22.0 106.32249999999999 22.405Q107.095 22.81 107.52250000000001 23.5375Q107.95 24.265 107.95 25.24V26.724999999999998H102.865V27.31Q102.865 28.18 103.285 28.6225Q103.705 29.064999999999998 104.53 29.064999999999998Q105.16 29.064999999999998 105.55 28.847499999999997Q105.94 28.63 106.045 28.209999999999997H107.89Q107.68 29.275 106.7575 29.912499999999998Q105.835 30.549999999999997 104.515 30.549999999999997ZM106.135 25.674999999999997V25.224999999999998Q106.135 24.369999999999997 105.73 23.912499999999998Q105.325 23.455 104.515 23.455Q103.705 23.455 103.285 23.919999999999998Q102.865 24.384999999999998 102.865 25.24V25.555L106.27 25.525ZM110.41 30.4V22.15H112.18V23.724999999999998H112.645L112.09 24.685Q112.09 23.349999999999998 112.69 22.674999999999997Q113.29 22.0 114.46 22.0Q115.795 22.0 116.56 22.825Q117.325 23.65 117.325 25.104999999999997V25.705H115.36V25.24Q115.36 24.445 114.94749999999999 24.009999999999998Q114.535 23.575 113.815 23.575Q113.08 23.575 112.6825 24.009999999999998Q112.285 24.445 112.285 25.24V30.4ZM131.56 30.549999999999997Q130.51 30.549999999999997 129.7225 30.152499999999996Q128.935 29.755 128.5075 29.027499999999996Q128.08 28.299999999999997 128.08 27.31V22.54Q128.08 21.534999999999997 128.5075 20.814999999999998Q128.935 20.095 129.7225 19.697499999999998Q130.51 19.299999999999997 131.56 19.299999999999997Q132.625 19.299999999999997 133.39749999999998 19.697499999999998Q134.17 20.095 134.605 20.814999999999998Q135.04 21.534999999999997 135.04 22.54H133.15Q133.15 21.759999999999998 132.7375 21.354999999999997Q132.325 20.95 131.56 20.95Q130.795 20.95 130.375 21.354999999999997Q129.955 21.759999999999998 129.955 22.525V27.31Q129.955 28.075 130.375 28.494999999999997Q130.795 28.915 131.56 28.915Q132.325 28.915 132.7375 28.494999999999997Q133.15 28.075 133.15 27.31V26.2H131.29V24.58H135.04V27.31Q135.04 28.299999999999997 134.605 29.027499999999996Q134.17 29.755 133.39749999999998 30.152499999999996Q132.625 30.549999999999997 131.56 30.549999999999997ZM137.41 30.4V22.15H139.18V23.724999999999998H139.645L139.09 24.685Q139.09 23.349999999999998 139.69 22.674999999999997Q140.29 22.0 141.46 22.0Q142.795 22.0 143.56 22.825Q144.325 23.65 144.325 25.104999999999997V25.705H142.36V25.24Q142.36 24.445 141.9475 24.009999999999998Q141.535 23.575 140.815 23.575Q140.08 23.575 139.6825 24.009999999999998Q139.285 24.445 139.285 25.24V30.4ZM148.585 30.549999999999997Q147.31 30.549999999999997 146.575 29.875Q145.84 29.2 145.84 28.06Q145.84 26.845 146.65 26.185Q147.46 25.525 148.945 25.525H151.0V24.82Q151.0 24.22 150.61 23.8825Q150.22 23.544999999999998 149.545 23.544999999999998Q148.93 23.544999999999998 148.525 23.814999999999998Q148.12 24.085 148.045 24.549999999999997H146.215Q146.35 23.38 147.265 22.689999999999998Q148.18 22.0 149.605 22.0Q151.12 22.0 151.9975 22.7575Q152.875 23.515 152.875 24.805V30.4H151.06V28.959999999999997H150.76L151.06 28.555Q151.06 29.47 150.385 30.009999999999998Q149.71 30.549999999999997 148.585 30.549999999999997ZM149.2 29.139999999999997Q149.995 29.139999999999997 150.4975 28.735Q151.0 28.33 151.0 27.685V26.68H148.975Q148.405 26.68 148.06 27.009999999999998Q147.715 27.34 147.715 27.88Q147.715 28.465 148.1125 28.8025Q148.51 29.139999999999997 149.2 29.139999999999997ZM155.155 33.1V22.15H156.985V23.724999999999998H157.405L156.985 24.159999999999997Q156.985 23.154999999999998 157.585 22.5775Q158.185 22.0 159.205 22.0Q160.45 22.0 161.2 22.855Q161.95 23.71 161.95 25.15V27.384999999999998Q161.95 28.345 161.6125 29.057499999999997Q161.275 29.77 160.66 30.159999999999997Q160.045 30.549999999999997 159.205 30.549999999999997Q158.185 30.549999999999997 157.585 29.972499999999997Q156.985 29.395 156.985 28.39L157.405 28.825H156.97L157.03 30.79V33.1ZM158.545 28.93Q159.265 28.93 159.67 28.509999999999998Q160.075 28.09 160.075 27.31V25.24Q160.075 24.46 159.67 24.04Q159.265 23.619999999999997 158.545 23.619999999999997Q157.84 23.619999999999997 157.435 24.0475Q157.03 24.474999999999998 157.03 25.24V27.31Q157.03 28.075 157.435 28.502499999999998Q157.84 28.93 158.545 28.93ZM164.155 30.4V19.45H166.03V22.15L165.985 23.724999999999998H166.495L165.985 24.159999999999997Q165.985 23.14 166.5775 22.57Q167.17 22.0 168.205 22.0Q169.42 22.0 170.14749999999998 22.81Q170.875 23.619999999999997 170.875 24.985V30.4H169.0V25.18Q169.0 24.43 168.61 24.025Q168.22 23.619999999999997 167.515 23.619999999999997Q166.825 23.619999999999997 166.4275 24.04Q166.03 24.46 166.03 25.24V30.4ZM173.14 30.4V28.689999999999998H176.02V23.845H173.515V22.15H177.82V28.689999999999998H180.37V30.4ZM176.77 20.77Q176.20000000000002 20.77 175.87 20.4775Q175.54000000000002 20.185 175.54000000000002 19.689999999999998Q175.54000000000002 19.195 175.87 18.9025Q176.20000000000002 18.61 176.77 18.61Q177.34 18.61 177.67000000000002 18.9025Q178.0 19.195 178.0 19.689999999999998Q178.0 20.185 177.67000000000002 20.4775Q177.34 20.77 176.77 20.77ZM185.545 30.549999999999997Q184.495 30.549999999999997 183.70749999999998 30.152499999999996Q182.92 29.755 182.485 29.027499999999996Q182.05 28.299999999999997 182.05 27.31V25.24Q182.05 24.235 182.485 23.515Q182.92 22.794999999999998 183.70749999999998 22.3975Q184.495 22.0 185.545 22.0Q187.105 22.0 188.035 22.8025Q188.965 23.604999999999997 189.01 24.985H187.135Q187.09 24.34 186.6775 23.987499999999997Q186.265 23.634999999999998 185.545 23.634999999999998Q184.795 23.634999999999998 184.36 24.0475Q183.925 24.46 183.925 25.224999999999998V27.31Q183.925 28.075 184.36 28.494999999999997Q184.795 28.915 185.545 28.915Q186.265 28.915 186.6775 28.5625Q187.09 28.209999999999997 187.135 27.564999999999998H189.01Q188.965 28.945 188.035 29.7475Q187.105 30.549999999999997 185.545 30.549999999999997ZM194.185 30.535Q193.24 30.535 192.53500000000003 30.235Q191.83 29.935 191.4325 29.402499999999996Q191.035 28.869999999999997 191.005 28.15H192.88Q192.91 28.54 193.2625 28.78Q193.615 29.02 194.185 29.02H194.845Q195.535 29.02 195.88 28.75Q196.225 28.479999999999997 196.225 28.015Q196.225 27.58 195.91750000000002 27.332499999999996Q195.61 27.084999999999997 194.965 27.009999999999998L193.945 26.86Q192.535 26.665 191.875 26.11Q191.215 25.555 191.215 24.445Q191.215 23.29 191.995 22.6525Q192.775 22.015 194.29 22.015H194.86Q196.24 22.015 197.065 22.63Q197.89 23.244999999999997 197.95 24.279999999999998H196.075Q196.03 23.95 195.70749999999998 23.74Q195.385 23.529999999999998 194.86 23.529999999999998H194.29Q193.645 23.529999999999998 193.35250000000002 23.762499999999996Q193.06 23.994999999999997 193.06 24.445Q193.06 24.865 193.315 25.0675Q193.57 25.27 194.14 25.36L195.205 25.509999999999998Q196.675 25.72 197.3725 26.2975Q198.07 26.875 198.07 28.0Q198.07 29.2 197.2525 29.8675Q196.435 30.535 194.845 30.535ZM203.5 24.52Q202.87 24.52 202.4875 24.167499999999997Q202.105 23.814999999999998 202.105 23.259999999999998Q202.105 22.689999999999998 202.4875 22.345Q202.87 22.0 203.5 22.0Q204.13 22.0 204.5125 22.345Q204.895 22.689999999999998 204.895 23.259999999999998Q204.895 23.814999999999998 204.5125 24.167499999999997Q204.13 24.52 203.5 24.52ZM203.5 30.549999999999997Q202.87 30.549999999999997 202.4875 30.205Q202.105 29.86 202.105 29.29Q202.105 28.72 202.4875 28.375Q202.87 28.029999999999998 203.5 28.029999999999998Q204.13 28.029999999999998 204.5125 28.375Q204.895 28.72 204.895 29.29Q204.895 29.86 204.5125 30.205Q204.13 30.549999999999997 203.5 30.549999999999997ZM218.365 30.4 217.24 19.45H218.86L219.52 27.099999999999998Q219.55 27.354999999999997 219.5725 27.722499999999997Q219.595 28.09 219.6175 28.465Q219.64 28.84 219.64 29.125Q219.67 28.84 219.7 28.465Q219.73 28.09 219.76749999999998 27.722499999999997Q219.805 27.354999999999997 219.835 27.099999999999998L220.735 19.45H222.31L223.15 27.099999999999998Q223.195 27.354999999999997 223.23250000000002 27.722499999999997Q223.27 28.09 223.315 28.465Q223.36 28.84 223.39 29.125Q223.405 28.84 223.42000000000002 28.465Q223.435 28.09 223.45749999999998 27.722499999999997Q223.48 27.354999999999997 223.51 27.099999999999998L224.155 19.45H225.76L224.575 30.4H222.505L221.695 22.72Q221.665 22.435 221.6275 22.0525Q221.59 21.669999999999998 221.56 21.2875Q221.53 20.905 221.515 20.634999999999998Q221.5 20.905 221.4625 21.2875Q221.425 21.669999999999998 221.395 22.0525Q221.365 22.435 221.335 22.72L220.45 30.4ZM230.515 30.549999999999997Q229.465 30.549999999999997 228.685 30.144999999999996Q227.905 29.74 227.47750000000002 29.0125Q227.05 28.285 227.05 27.31V25.24Q227.05 24.265 227.47750000000002 23.5375Q227.905 22.81 228.685 22.405Q229.465 22.0 230.515 22.0Q231.55 22.0 232.3225 22.405Q233.095 22.81 233.52249999999998 23.5375Q233.95 24.265 233.95 25.24V26.724999999999998H228.865V27.31Q228.865 28.18 229.28500000000003 28.6225Q229.705 29.064999999999998 230.53 29.064999999999998Q231.16 29.064999999999998 231.55 28.847499999999997Q231.94 28.63 232.045 28.209999999999997H233.89Q233.68 29.275 232.7575 29.912499999999998Q231.835 30.549999999999997 230.515 30.549999999999997ZM232.135 25.674999999999997V25.224999999999998Q232.135 24.369999999999997 231.73 23.912499999999998Q231.325 23.455 230.515 23.455Q229.705 23.455 229.28500000000003 23.919999999999998Q228.865 24.384999999999998 228.865 25.24V25.555L232.27 25.525ZM240.205 30.549999999999997Q239.185 30.549999999999997 238.585 29.972499999999997Q237.985 29.395 237.985 28.39L238.405 28.825H237.985V30.4H236.155V19.45H238.03V21.759999999999998L237.97 23.724999999999998H238.405L237.985 24.159999999999997Q237.985 23.154999999999998 238.585 22.5775Q239.185 22.0 240.205 22.0Q241.45 22.0 242.2 22.855Q242.95 23.71 242.95 25.165V27.4Q242.95 28.84 242.2 29.695Q241.45 30.549999999999997 240.205 30.549999999999997ZM239.545 28.93Q240.265 28.93 240.67 28.509999999999998Q241.075 28.09 241.075 27.31V25.24Q241.075 24.46 240.67 24.04Q240.265 23.619999999999997 239.545 23.619999999999997Q238.84 23.619999999999997 238.435 24.0475Q238.03 24.474999999999998 238.03 25.24V27.31Q238.03 28.075 238.435 28.502499999999998Q238.84 28.93 239.545 28.93ZM248.56 30.549999999999997Q247.51 30.549999999999997 246.7225 30.152499999999996Q245.935 29.755 245.5075 29.027499999999996Q245.08 28.299999999999997 245.08 27.31V22.54Q245.08 21.534999999999997 245.5075 20.814999999999998Q245.935 20.095 246.7225 19.697499999999998Q247.51 19.299999999999997 248.56 19.299999999999997Q249.625 19.299999999999997 250.39749999999998 19.697499999999998Q251.17 20.095 251.605 20.814999999999998Q252.04 21.534999999999997 252.04 22.54H250.15Q250.15 21.759999999999998 249.7375 21.354999999999997Q249.325 20.95 248.56 20.95Q247.795 20.95 247.375 21.354999999999997Q246.955 21.759999999999998 246.955 22.525V27.31Q246.955 28.075 247.375 28.494999999999997Q247.795 28.915 248.56 28.915Q249.325 28.915 249.7375 28.494999999999997Q250.15 28.075 250.15 27.31V26.2H248.29V24.58H252.04V27.31Q252.04 28.299999999999997 251.605 29.027499999999996Q251.17 29.755 250.39749999999998 30.152499999999996Q249.625 30.549999999999997 248.56 30.549999999999997ZM254.545 30.4V19.45H256.42V28.66H261.07V30.4ZM263.185 30.4V28.584999999999997L266.605 25.15Q267.325 24.415 267.66999999999996 23.822499999999998Q268.015 23.229999999999997 268.015 22.599999999999998Q268.015 21.835 267.595 21.4075Q267.175 20.979999999999997 266.455 20.979999999999997Q265.66 20.979999999999997 265.21000000000004 21.4375Q264.76 21.895 264.76 22.705H262.885Q262.9 21.655 263.3425 20.8975Q263.785 20.14 264.595 19.72Q265.405 19.299999999999997 266.485 19.299999999999997Q267.52 19.299999999999997 268.28499999999997 19.689999999999998Q269.05 20.08 269.47 20.784999999999997Q269.89 21.49 269.89 22.465Q269.89 23.47 269.3725 24.4225Q268.855 25.375 267.715 26.47L265.435 28.705H270.025V30.4ZM281.14 30.4V19.45H284.605Q285.7 19.45 286.5025 19.854999999999997Q287.305 20.259999999999998 287.755 20.987499999999997Q288.205 21.714999999999996 288.205 22.705Q288.205 23.785 287.6575 24.61Q287.11 25.435 286.18 25.779999999999998L288.355 30.4H286.255L284.35 26.049999999999997H283.015V30.4ZM283.015 24.4H284.605Q285.4 24.4 285.85 23.964999999999996Q286.3 23.529999999999998 286.3 22.765Q286.3 21.985 285.85 21.5425Q285.4 21.1 284.605 21.1H283.015ZM293.515 30.549999999999997Q292.465 30.549999999999997 291.68499999999995 30.144999999999996Q290.905 29.74 290.47749999999996 29.0125Q290.05 28.285 290.05 27.31V25.24Q290.05 24.265 290.47749999999996 23.5375Q290.905 22.81 291.68499999999995 22.405Q292.465 22.0 293.515 22.0Q294.55 22.0 295.3225 22.405Q296.095 22.81 296.52250000000004 23.5375Q296.95 24.265 296.95 25.24V26.724999999999998H291.865V27.31Q291.865 28.18 292.28499999999997 28.6225Q292.705 29.064999999999998 293.53 29.064999999999998Q294.16 29.064999999999998 294.55 28.847499999999997Q294.94 28.63 295.045 28.209999999999997H296.89Q296.68 29.275 295.7575 29.912499999999998Q294.835 30.549999999999997 293.515 30.549999999999997ZM295.135 25.674999999999997V25.224999999999998Q295.135 24.369999999999997 294.73 23.912499999999998Q294.325 23.455 293.515 23.455Q292.705 23.455 292.28499999999997 23.919999999999998Q291.865 24.384999999999998 291.865 25.24V25.555L295.27 25.525ZM299.155 30.4V22.15H300.985V23.724999999999998H301.495L300.985 24.159999999999997Q300.985 23.14 301.5775 22.57Q302.17 22.0 303.205 22.0Q304.42 22.0 305.14750000000004 22.81Q305.875 23.619999999999997 305.875 24.985V30.4H304.0V25.18Q304.0 24.43 303.61 24.025Q303.22 23.619999999999997 302.515 23.619999999999997Q301.825 23.619999999999997 301.4275 24.04Q301.03 24.46 301.03 25.24V30.4ZM310.795 30.549999999999997Q309.565 30.549999999999997 308.8075 29.695Q308.05 28.84 308.05 27.4V25.165Q308.05 23.71 308.8 22.855Q309.55 22.0 310.795 22.0Q311.815 22.0 312.41499999999996 22.5775Q313.015 23.154999999999998 313.015 24.159999999999997L312.595 23.724999999999998H313.03L312.97 21.759999999999998V19.45H314.845V30.4H313.015V28.825H312.595L313.015 28.39Q313.015 29.395 312.41499999999996 29.972499999999997Q311.815 30.549999999999997 310.795 30.549999999999997ZM311.455 28.93Q312.175 28.93 312.5725 28.502499999999998Q312.97 28.075 312.97 27.31V25.24Q312.97 24.474999999999998 312.5725 24.0475Q312.175 23.619999999999997 311.455 23.619999999999997Q310.735 23.619999999999997 310.33000000000004 24.04Q309.925 24.46 309.925 25.24V27.31Q309.925 28.09 310.33000000000004 28.509999999999998Q310.735 28.93 311.455 28.93ZM320.515 30.549999999999997Q319.465 30.549999999999997 318.68499999999995 30.144999999999996Q317.905 29.74 317.47749999999996 29.0125Q317.05 28.285 317.05 27.31V25.24Q317.05 24.265 317.47749999999996 23.5375Q317.905 22.81 318.68499999999995 22.405Q319.465 22.0 320.515 22.0Q321.55 22.0 322.3225 22.405Q323.095 22.81 323.52250000000004 23.5375Q323.95 24.265 323.95 25.24V26.724999999999998H318.865V27.31Q318.865 28.18 319.28499999999997 28.6225Q319.705 29.064999999999998 320.53 29.064999999999998Q321.16 29.064999999999998 321.55 28.847499999999997Q321.94 28.63 322.045 28.209999999999997H323.89Q323.68 29.275 322.7575 29.912499999999998Q321.835 30.549999999999997 320.515 30.549999999999997ZM322.135 25.674999999999997V25.224999999999998Q322.135 24.369999999999997 321.73 23.912499999999998Q321.325 23.455 320.515 23.455Q319.705 23.455 319.28499999999997 23.919999999999998Q318.865 24.384999999999998 318.865 25.24V25.555L322.27 25.525ZM326.41 30.4V22.15H328.18V23.724999999999998H328.645L328.09 24.685Q328.09 23.349999999999998 328.69 22.674999999999997Q329.29 22.0 330.46 22.0Q331.795 22.0 332.56 22.825Q333.325 23.65 333.325 25.104999999999997V25.705H331.36V25.24Q331.36 24.445 330.9475 24.009999999999998Q330.535 23.575 329.815 23.575Q329.08 23.575 328.6825 24.009999999999998Q328.285 24.445 328.285 25.24V30.4ZM335.14 30.4V28.689999999999998H338.02V23.845H335.515V22.15H339.82V28.689999999999998H342.37V30.4ZM338.77 20.77Q338.2 20.77 337.87 20.4775Q337.53999999999996 20.185 337.53999999999996 19.689999999999998Q337.53999999999996 19.195 337.87 18.9025Q338.2 18.61 338.77 18.61Q339.34 18.61 339.66999999999996 18.9025Q340.0 19.195 340.0 19.689999999999998Q340.0 20.185 339.66999999999996 20.4775Q339.34 20.77 338.77 20.77ZM344.155 30.4V22.15H345.985V23.724999999999998H346.495L345.985 24.159999999999997Q345.985 23.14 346.5775 22.57Q347.17 22.0 348.205 22.0Q349.42 22.0 350.14750000000004 22.81Q350.875 23.619999999999997 350.875 24.985V30.4H349.0V25.18Q349.0 24.43 348.61 24.025Q348.22 23.619999999999997 347.515 23.619999999999997Q346.825 23.619999999999997 346.4275 24.04Q346.03 24.46 346.03 25.24V30.4ZM354.28 33.1V31.54H356.725Q357.355 31.54 357.67 31.232499999999998Q357.985 30.924999999999997 357.985 30.354999999999997V29.74L358.015 28.195H357.61L358.015 27.79Q358.015 28.794999999999998 357.4225 29.357499999999998Q356.83 29.919999999999998 355.825 29.919999999999998Q354.565 29.919999999999998 353.8225 29.064999999999998Q353.08 28.209999999999997 353.08 26.755V25.15Q353.08 23.71 353.8225 22.855Q354.565 22.0 355.825 22.0Q356.83 22.0 357.4225 22.5625Q358.015 23.125 358.015 24.13L357.61 23.724999999999998H358.015L357.97 22.15H359.845V30.4Q359.845 31.645 359.02 32.3725Q358.195 33.1 356.755 33.1ZM356.455 28.299999999999997Q357.175 28.299999999999997 357.5725 27.8725Q357.97 27.445 357.97 26.68V25.24Q357.97 24.474999999999998 357.5725 24.0475Q357.175 23.619999999999997 356.455 23.619999999999997Q355.735 23.619999999999997 355.345 24.04Q354.955 24.46 354.955 25.24V26.68Q354.955 27.459999999999997 355.345 27.879999999999995Q355.735 28.299999999999997 356.455 28.299999999999997ZM371.32 30.4V19.45H377.89V21.085H373.165V23.935H377.365V25.555H373.165V28.764999999999997H377.89V30.4ZM380.155 30.4V22.15H381.985V23.724999999999998H382.495L381.985 24.159999999999997Q381.985 23.14 382.5775 22.57Q383.17 22.0 384.205 22.0Q385.42 22.0 386.14750000000004 22.81Q386.875 23.619999999999997 386.875 24.985V30.4H385.0V25.18Q385.0 24.43 384.61 24.025Q384.22 23.619999999999997 383.515 23.619999999999997Q382.825 23.619999999999997 382.4275 24.04Q382.03 24.46 382.03 25.24V30.4ZM390.28 33.1V31.54H392.725Q393.355 31.54 393.67 31.232499999999998Q393.985 30.924999999999997 393.985 30.354999999999997V29.74L394.015 28.195H393.61L394.015 27.79Q394.015 28.794999999999998 393.4225 29.357499999999998Q392.83 29.919999999999998 391.825 29.919999999999998Q390.565 29.919999999999998 389.8225 29.064999999999998Q389.08 28.209999999999997 389.08 26.755V25.15Q389.08 23.71 389.8225 22.855Q390.565 22.0 391.825 22.0Q392.83 22.0 393.4225 22.5625Q394.015 23.125 394.015 24.13L393.61 23.724999999999998H394.015L393.97 22.15H395.845V30.4Q395.845 31.645 395.02 32.3725Q394.195 33.1 392.755 33.1ZM392.455 28.299999999999997Q393.175 28.299999999999997 393.5725 27.8725Q393.97 27.445 393.97 26.68V25.24Q393.97 24.474999999999998 393.5725 24.0475Q393.175 23.619999999999997 392.455 23.619999999999997Q391.735 23.619999999999997 391.345 24.04Q390.955 24.46 390.955 25.24V26.68Q390.955 27.459999999999997 391.345 27.879999999999995Q391.735 28.299999999999997 392.455 28.299999999999997ZM398.14 30.4V28.689999999999998H401.02V23.845H398.515V22.15H402.82V28.689999999999998H405.37V30.4ZM401.77 20.77Q401.2 20.77 400.87 20.4775Q400.53999999999996 20.185 400.53999999999996 19.689999999999998Q400.53999999999996 19.195 400.87 18.9025Q401.2 18.61 401.77 18.61Q402.34 18.61 402.66999999999996 18.9025Q403.0 19.195 403.0 19.689999999999998Q403.0 20.185 402.66999999999996 20.4775Q402.34 20.77 401.77 20.77ZM407.155 30.4V22.15H408.985V23.724999999999998H409.495L408.985 24.159999999999997Q408.985 23.14 409.5775 22.57Q410.17 22.0 411.205 22.0Q412.42 22.0 413.14750000000004 22.81Q413.875 23.619999999999997 413.875 24.985V30.4H412.0V25.18Q412.0 24.43 411.61 24.025Q411.22 23.619999999999997 410.515 23.619999999999997Q409.825 23.619999999999997 409.4275 24.04Q409.03 24.46 409.03 25.24V30.4ZM419.515 30.549999999999997Q418.465 30.549999999999997 417.68499999999995 30.144999999999996Q416.905 29.74 416.47749999999996 29.0125Q416.05 28.285 416.05 27.31V25.24Q416.05 24.265 416.47749999999996 23.5375Q416.905 22.81 417.68499999999995 22.405Q418.465 22.0 419.515 22.0Q420.55 22.0 421.3225 22.405Q422.095 22.81 422.52250000000004 23.5375Q422.95 24.265 422.95 25.24V26.724999999999998H417.865V27.31Q417.865 28.18 418.28499999999997 28.6225Q418.705 29.064999999999998 419.53 29.064999999999998Q420.16 29.064999999999998 420.55 28.847499999999997Q420.94 28.63 421.045 28.209999999999997H422.89Q422.68 29.275 421.7575 29.912499999999998Q420.835 30.549999999999997 419.515 30.549999999999997ZM421.135 25.674999999999997V25.224999999999998Q421.135 24.369999999999997 420.73 23.912499999999998Q420.325 23.455 419.515 23.455Q418.705 23.455 418.28499999999997 23.919999999999998Q417.865 24.384999999999998 417.865 25.24V25.555L421.27 25.525Z" fill="#f2f4ff"/><path d="M804 25h14M812 19l6 6-6 6" fill="none" stroke="#c0c7e2" stroke-width="2.4" stroke-linecap="round" stroke-linejoin="round"/><path d="M664.3960000000001 31.94V22.450000000000003H665.566V23.815H665.8000000000001L665.566 24.088Q665.566 23.269000000000002 666.1055000000001 22.7945Q666.6450000000001 22.32 667.529 22.32Q668.6080000000001 22.32 669.2515000000001 23.0285Q669.8950000000001 23.737000000000002 669.8950000000001 24.972V27.065Q669.8950000000001 27.884 669.6025000000001 28.482Q669.3100000000001 29.080000000000002 668.7835 29.405Q668.2570000000001 29.73 667.529 29.73Q666.658 29.73 666.1120000000001 29.249000000000002Q665.566 28.768 665.566 27.962000000000003L665.8000000000001 28.235000000000003H665.5400000000001L665.566 29.860000000000003V31.94ZM667.139 28.716Q667.88 28.716 668.3025 28.274Q668.725 27.832 668.725 27.0V25.05Q668.725 24.218000000000004 668.3025 23.776000000000003Q667.88 23.334000000000003 667.139 23.334000000000003Q666.4240000000001 23.334000000000003 665.9950000000001 23.789Q665.566 24.244 665.566 25.05V27.0Q665.566 27.806 665.9950000000001 28.261000000000003Q666.4240000000001 28.716 667.139 28.716ZM672.443 29.6V22.450000000000003H673.587V23.815H673.86L673.483 24.660000000000004Q673.483 23.503 673.9835 22.9115Q674.484 22.32 675.472 22.32Q676.603 22.32 677.2725 23.0285Q677.942 23.737000000000002 677.942 24.946V25.375H676.772V25.05Q676.772 24.205000000000002 676.3625 23.756500000000003Q675.953 23.308 675.199 23.308Q674.458 23.308 674.0355 23.763Q673.613 24.218000000000004 673.613 25.05V29.6ZM682.0759999999999 29.73Q680.9449999999999 29.73 680.295 29.1515Q679.645 28.573 679.645 27.585Q679.645 26.584000000000003 680.295 26.012Q680.9449999999999 25.44 682.05 25.44H684.26V24.725Q684.26 24.062 683.8634999999999 23.704500000000003Q683.467 23.347 682.7389999999999 23.347Q682.102 23.347 681.673 23.613500000000002Q681.2439999999999 23.880000000000003 681.179 24.335H680.0089999999999Q680.126 23.412000000000003 680.8799999999999 22.866Q681.6339999999999 22.32 682.765 22.32Q684.0 22.32 684.7149999999999 22.957Q685.43 23.594 685.43 24.686V29.6H684.286V28.235000000000003H684.091L684.286 28.040000000000003Q684.286 28.82 683.6814999999999 29.275Q683.077 29.73 682.0759999999999 29.73ZM682.362 28.807000000000002Q683.194 28.807000000000002 683.727 28.391000000000002Q684.26 27.975 684.26 27.325000000000003V26.311H682.0759999999999Q681.491 26.311 681.153 26.636000000000003Q680.8149999999999 26.961000000000002 680.8149999999999 27.520000000000003Q680.8149999999999 28.118000000000002 681.2244999999999 28.462500000000002Q681.6339999999999 28.807000000000002 682.362 28.807000000000002ZM687.7959999999999 29.6V22.450000000000003H688.9659999999999V23.815H689.213L688.9659999999999 24.088Q688.9659999999999 23.243000000000002 689.473 22.7815Q689.9799999999999 22.32 690.877 22.32Q691.9559999999999 22.32 692.5929999999998 22.983Q693.2299999999999 23.646 693.2299999999999 24.790000000000003V29.6H692.06V24.92Q692.06 24.153000000000002 691.6505 23.743500000000004Q691.2409999999999 23.334000000000003 690.5389999999999 23.334000000000003Q689.8109999999999 23.334000000000003 689.3884999999999 23.776000000000003Q688.9659999999999 24.218000000000004 688.9659999999999 25.05V29.6ZM698.0789999999998 29.704Q697.3509999999999 29.704 696.8114999999998 29.4765Q696.2719999999998 29.249000000000002 695.9534999999998 28.833000000000002Q695.6349999999999 28.417 695.5699999999998 27.845000000000002H696.7399999999999Q696.8179999999999 28.222 697.1624999999999 28.443Q697.5069999999998 28.664 698.0789999999998 28.664H698.6249999999999Q699.3139999999999 28.664 699.6519999999998 28.384500000000003Q699.9899999999999 28.105 699.9899999999999 27.637Q699.9899999999999 27.182000000000002 699.6844999999998 26.9155Q699.3789999999999 26.649 698.7809999999998 26.558L697.8189999999998 26.402Q696.7659999999998 26.220000000000002 696.2524999999998 25.7455Q695.7389999999999 25.271 695.7389999999999 24.361Q695.7389999999999 23.399 696.3499999999999 22.872500000000002Q696.9609999999999 22.346000000000004 698.1829999999999 22.346000000000004H698.6769999999999Q699.7039999999998 22.346000000000004 700.3279999999999 22.827Q700.9519999999999 23.308 701.0819999999999 24.127000000000002H699.9119999999998Q699.8339999999998 23.789 699.5219999999998 23.587500000000002Q699.2099999999998 23.386000000000003 698.6769999999999 23.386000000000003H698.1829999999999Q697.5199999999999 23.386000000000003 697.2144999999998 23.633000000000003Q696.9089999999999 23.880000000000003 696.9089999999999 24.374000000000002Q696.9089999999999 24.816000000000003 697.1689999999999 25.024Q697.4289999999999 25.232000000000003 697.9879999999998 25.323L698.9499999999998 25.479000000000003Q700.1069999999999 25.661 700.6334999999999 26.155Q701.1599999999999 26.649 701.1599999999999 27.585Q701.1599999999999 28.573 700.5294999999999 29.1385Q699.8989999999999 29.704 698.6249999999999 29.704ZM703.3959999999998 29.6V20.11H704.5659999999998V22.450000000000003V23.815H704.8129999999999L704.5659999999998 24.088Q704.5659999999998 23.243000000000002 705.0729999999999 22.7815Q705.5799999999998 22.32 706.4769999999999 22.32Q707.5559999999998 22.32 708.1929999999998 22.983Q708.8299999999998 23.646 708.8299999999998 24.790000000000003V29.6H707.6599999999999V24.92Q707.6599999999999 24.153000000000002 707.2504999999999 23.7305Q706.8409999999998 23.308 706.1389999999998 23.308Q705.4109999999998 23.308 704.9884999999998 23.763Q704.5659999999998 24.218000000000004 704.5659999999998 25.05V29.6ZM713.8869999999997 29.73Q712.6519999999998 29.73 711.9109999999998 28.9955Q711.1699999999997 28.261000000000003 711.1699999999997 27.0V22.450000000000003H712.3399999999998V27.0Q712.3399999999998 27.806 712.7559999999999 28.2545Q713.1719999999998 28.703000000000003 713.8869999999997 28.703000000000003Q714.6149999999998 28.703000000000003 715.0374999999998 28.2545Q715.4599999999998 27.806 715.4599999999998 27.0V22.450000000000003H716.6299999999998V27.0Q716.6299999999998 28.261000000000003 715.8759999999997 28.9955Q715.1219999999997 29.73 713.8869999999997 29.73ZM719.0349999999997 29.6V20.11H720.2049999999997V25.401000000000003H721.5829999999997L723.6629999999998 22.450000000000003H725.0019999999997L722.5969999999998 25.856L725.0409999999997 29.6H723.6759999999997L721.5959999999998 26.415000000000003H720.2049999999997V29.6ZM726.7959999999997 29.6V28.404L729.6949999999997 25.323Q730.4359999999997 24.53 730.7739999999997 23.9125Q731.1119999999996 23.295 731.1119999999996 22.723000000000003Q731.1119999999996 21.93 730.6764999999996 21.475Q730.2409999999996 21.020000000000003 729.4869999999996 21.020000000000003Q728.6549999999996 21.020000000000003 728.1804999999997 21.488000000000003Q727.7059999999997 21.956000000000003 727.7059999999997 22.775000000000002H726.5359999999997Q726.5619999999997 21.917 726.9324999999997 21.286500000000004Q727.3029999999997 20.656000000000002 727.9594999999997 20.318000000000005Q728.6159999999996 19.980000000000004 729.4869999999996 19.980000000000004Q730.3449999999997 19.980000000000004 730.9754999999997 20.311500000000002Q731.6059999999997 20.643 731.9439999999997 21.254Q732.2819999999997 21.865000000000002 732.2819999999997 22.71Q732.2819999999997 23.516000000000002 731.8529999999996 24.309Q731.4239999999996 25.102 730.4489999999997 26.116L728.1089999999997 28.534000000000002H732.4379999999996V29.6ZM734.5959999999997 29.6V28.404L737.4949999999997 25.323Q738.2359999999996 24.53 738.5739999999996 23.9125Q738.9119999999996 23.295 738.9119999999996 22.723000000000003Q738.9119999999996 21.93 738.4764999999995 21.475Q738.0409999999996 21.020000000000003 737.2869999999996 21.020000000000003Q736.4549999999996 21.020000000000003 735.9804999999997 21.488000000000003Q735.5059999999996 21.956000000000003 735.5059999999996 22.775000000000002H734.3359999999997Q734.3619999999996 21.917 734.7324999999996 21.286500000000004Q735.1029999999996 20.656000000000002 735.7594999999997 20.318000000000005Q736.4159999999996 19.980000000000004 737.2869999999996 19.980000000000004Q738.1449999999996 19.980000000000004 738.7754999999996 20.311500000000002Q739.4059999999996 20.643 739.7439999999997 21.254Q740.0819999999997 21.865000000000002 740.0819999999997 22.71Q740.0819999999997 23.516000000000002 739.6529999999996 24.309Q739.2239999999996 25.102 738.2489999999997 26.116L735.9089999999997 28.534000000000002H740.2379999999996V29.6ZM742.1749999999996 31.03 746.7899999999996 18.810000000000002H748.0249999999996L743.4099999999996 31.03ZM752.9519999999995 29.73Q752.0939999999996 29.73 751.4634999999996 29.405Q750.8329999999995 29.080000000000002 750.4884999999995 28.462500000000002Q750.1439999999996 27.845000000000002 750.1439999999996 27.0V22.71Q750.1439999999996 21.852000000000004 750.4884999999995 21.241000000000003Q750.8329999999995 20.630000000000003 751.4634999999996 20.305000000000003Q752.0939999999996 19.980000000000004 752.9519999999995 19.980000000000004Q753.8099999999995 19.980000000000004 754.4339999999995 20.311500000000002Q755.0579999999995 20.643 755.3959999999995 21.254Q755.7339999999996 21.865000000000002 755.7339999999996 22.71H754.5639999999995Q754.5639999999995 21.904000000000003 754.1414999999995 21.468500000000002Q753.7189999999996 21.033 752.9519999999995 21.033Q752.1849999999995 21.033 751.7494999999994 21.462000000000003Q751.3139999999995 21.891000000000002 751.3139999999995 22.697000000000003V27.0Q751.3139999999995 27.806 751.7494999999994 28.241500000000002Q752.1849999999995 28.677000000000003 752.9519999999995 28.677000000000003Q753.7189999999996 28.677000000000003 754.1414999999995 28.241500000000002Q754.5639999999995 27.806 754.5639999999995 27.0H755.7339999999996Q755.7339999999996 27.832 755.3959999999995 28.4495Q755.0579999999995 29.067 754.4339999999995 29.3985Q753.8099999999995 29.73 752.9519999999995 29.73ZM760.7519999999995 29.73Q759.8159999999995 29.73 759.1464999999995 29.418Q758.4769999999995 29.106 758.1129999999995 28.521Q757.7489999999995 27.936 757.7359999999995 27.130000000000003H758.9059999999995Q758.9059999999995 27.845000000000002 759.3934999999994 28.261000000000003Q759.8809999999995 28.677000000000003 760.7519999999995 28.677000000000003Q761.5709999999995 28.677000000000003 762.0324999999995 28.274Q762.4939999999995 27.871000000000002 762.4939999999995 27.156000000000002Q762.4939999999995 26.584000000000003 762.1884999999995 26.155Q761.8829999999995 25.726000000000003 761.3109999999995 25.557000000000002L760.0239999999995 25.154000000000003Q759.0489999999995 24.855 758.5224999999996 24.153Q757.9959999999995 23.451 757.9959999999995 22.502000000000002Q757.9959999999995 21.735000000000003 758.3404999999996 21.1695Q758.6849999999995 20.604 759.3089999999995 20.2855Q759.9329999999995 19.967000000000002 760.7779999999995 19.967000000000002Q762.0259999999995 19.967000000000002 762.7799999999995 20.6625Q763.5339999999995 21.358000000000004 763.5469999999995 22.515H762.3769999999995Q762.3769999999995 21.813000000000002 761.9544999999995 21.416500000000003Q761.5319999999995 21.020000000000003 760.7649999999995 21.020000000000003Q760.0109999999995 21.020000000000003 759.5884999999995 21.384Q759.1659999999995 21.748 759.1659999999995 22.398000000000003Q759.1659999999995 22.983 759.4779999999995 23.412Q759.7899999999995 23.841 760.3749999999995 24.023000000000003L761.6749999999995 24.439Q762.6239999999995 24.738 763.1439999999996 25.453000000000003Q763.6639999999995 26.168000000000003 763.6639999999995 27.130000000000003Q763.6639999999995 27.91 763.2999999999995 28.495Q762.9359999999995 29.080000000000002 762.2794999999994 29.405Q761.6229999999995 29.73 760.7519999999995 29.73ZM768.3569999999994 29.73Q767.4989999999995 29.73 766.8554999999994 29.3855Q766.2119999999994 29.041 765.8609999999994 28.43Q765.5099999999994 27.819000000000003 765.5099999999994 27.0H766.6799999999995Q766.6799999999995 27.793000000000003 767.1284999999995 28.241500000000002Q767.5769999999994 28.69 768.3699999999994 28.69Q769.1759999999995 28.69 769.6179999999995 28.222Q770.0599999999995 27.754 770.0599999999995 27.0V26.324Q770.0599999999995 25.518 769.6179999999995 25.076Q769.1759999999995 24.634 768.3699999999994 24.634H767.3949999999994V23.464000000000002L769.7479999999995 21.176000000000002H765.8999999999994V20.11H770.9309999999995V21.28L768.3959999999995 23.737000000000002V23.594Q769.6959999999995 23.594 770.4629999999995 24.335Q771.2299999999994 25.076 771.2299999999994 26.324V27.0Q771.2299999999994 27.819000000000003 770.8724999999995 28.43Q770.5149999999994 29.041 769.8649999999994 29.3855Q769.2149999999995 29.73 768.3569999999994 29.73ZM776.3129999999994 29.73Q775.4029999999995 29.73 774.7204999999994 29.3465Q774.0379999999994 28.963 773.6609999999994 28.274Q773.2839999999994 27.585 773.2839999999994 26.675Q773.2839999999994 25.96 773.4854999999994 25.271Q773.6869999999994 24.582 774.0899999999995 23.945L776.4689999999994 20.11H777.7689999999994L775.0779999999994 24.426000000000002L775.1299999999994 24.465000000000003Q775.3769999999994 24.101000000000003 775.8059999999994 23.906000000000002Q776.2349999999994 23.711000000000002 776.7679999999995 23.711000000000002Q777.5479999999994 23.711000000000002 778.1199999999994 24.075000000000003Q778.6919999999994 24.439 779.0039999999995 25.102Q779.3159999999995 25.765 779.3159999999995 26.675Q779.3159999999995 27.585 778.9389999999994 28.274Q778.5619999999994 28.963 777.8924999999995 29.3465Q777.2229999999994 29.73 776.3129999999994 29.73ZM776.2999999999994 28.69Q777.1319999999994 28.69 777.6389999999994 28.137500000000003Q778.1459999999994 27.585 778.1459999999994 26.675Q778.1459999999994 25.765 777.6389999999994 25.212500000000002Q777.1319999999994 24.660000000000004 776.2999999999994 24.660000000000004Q775.4679999999994 24.660000000000004 774.9609999999993 25.212500000000002Q774.4539999999994 25.765 774.4539999999994 26.675Q774.4539999999994 27.585 774.9609999999993 28.137500000000003Q775.4679999999994 28.69 776.2999999999994 28.69ZM784.0999999999993 29.73Q783.2289999999994 29.73 782.5854999999993 29.3855Q781.9419999999993 29.041 781.5909999999993 28.4105Q781.2399999999993 27.78 781.2399999999993 26.935000000000002V22.775000000000002Q781.2399999999993 21.917 781.5909999999993 21.293000000000003Q781.9419999999993 20.669000000000004 782.5854999999993 20.324500000000004Q783.2289999999994 19.980000000000004 784.0999999999993 19.980000000000004Q784.9839999999994 19.980000000000004 785.6209999999994 20.324500000000004Q786.2579999999994 20.669000000000004 786.6089999999994 21.293000000000003Q786.9599999999994 21.917 786.9599999999994 22.775000000000002V26.935000000000002Q786.9599999999994 27.78 786.6089999999994 28.4105Q786.2579999999994 29.041 785.6144999999993 29.3855Q784.9709999999993 29.73 784.0999999999993 29.73ZM784.0999999999993 28.729000000000003Q784.8799999999993 28.729000000000003 785.3544999999993 28.228500000000004Q785.8289999999994 27.728 785.8289999999994 26.935000000000002V22.775000000000002Q785.8289999999994 21.982000000000003 785.3544999999993 21.481500000000004Q784.8799999999993 20.981 784.0999999999993 20.981Q783.3199999999994 20.981 782.8454999999994 21.481500000000004Q782.3709999999994 21.982000000000003 782.3709999999994 22.775000000000002V26.935000000000002Q782.3709999999994 27.728 782.8454999999994 28.228500000000004Q783.3199999999994 28.729000000000003 784.0999999999993 28.729000000000003ZM784.0999999999993 25.622Q783.7489999999993 25.622 783.5344999999993 25.401Q783.3199999999994 25.18 783.3199999999994 24.816000000000003Q783.3199999999994 24.465000000000003 783.5344999999993 24.250500000000002Q783.7489999999993 24.036 784.0999999999993 24.036Q784.4509999999993 24.036 784.6654999999994 24.250500000000002Q784.8799999999993 24.465000000000003 784.8799999999993 24.816000000000003Q784.8799999999993 25.18 784.6654999999994 25.401Q784.4509999999993 25.622 784.0999999999993 25.622Z" fill="#c0c7e2"/></svg>